<svg width="300" height="120" viewBox="0 0 300 120" xmlns="http://www.w3.org/2000/svg">
  <!-- European map silhouette -->
  <g transform="translate(200, 20)">
    <path d="M10 15 L20 10 L35 12 L45 8 L55 15 L65 10 L70 20 L75 15 L80 25 L85 20 L90 30 L85 35 L80 40 L75 45 L70 50 L65 55 L60 50 L55 45 L50 40 L45 35 L40 30 L35 35 L30 40 L25 35 L20 30 L15 25 L10 20 Z" fill="#4B5563" opacity="0.8"/>
    <!-- Scandinavian countries -->
    <path d="M25 5 L30 3 L35 5 L40 8 L35 12 L30 10 L25 8 Z" fill="#4B5563" opacity="0.8"/>
    <!-- British Isles -->
    <path d="M5 20 L8 18 L12 20 L10 25 L8 22 L5 20 Z" fill="#4B5563" opacity="0.8"/>
    <path d="M2 25 L4 23 L6 25 L4 27 L2 25 Z" fill="#4B5563" opacity="0.8"/>
    <!-- Mediterranean -->
    <path d="M35 50 L45 48 L55 50 L60 55 L55 58 L45 56 L35 58 L30 55 L35 50 Z" fill="#4B5563" opacity="0.8"/>
  </g>
  
  <!-- Text: "visa" in coral/pink -->
  <text x="20" y="50" font-family="Inter, system-ui, sans-serif" font-size="36" font-weight="700" fill="#FF7A7A">visa</text>
  
  <!-- Text: "calculator" in dark gray -->
  <text x="20" y="85" font-family="Inter, system-ui, sans-serif" font-size="36" font-weight="600" fill="#374151">calculator</text>
</svg> 